<svg id="Capa_1" data-name="Capa 1" xmlns="http://www.w3.org/2000/svg" viewBox="0 0 404.14 66.27"><defs><style>.cls-1{fill:#cc2229;fill-rule:evenodd;}</style></defs><g id="Grupo_6619" data-name="Grupo 6619"><path id="Trazado_12385" data-name="Trazado 12385" class="cls-1" d="M121.21,135.6c1.16-4.81,2.51-10.41,10.56-10.41h32.39c11.88,0,10.31,6.53,9.37,10.41l-4.27,17.68H134.93l-1.29,5.36c-.86,3.53,1.52,5.69,5.92,5.69h27l-3,12.43H123.42c-12.16,0-11.1-4.38-9.62-10.52l7.41-30.65Zm16.07,7.93h16.06l1.1-4.3c.33-1.32.82-3.4-2.27-3.4H142.4a3.82,3.82,0,0,0-4,3.25l-1.13,4.46ZM223,125.19H191.65c-9.63,0-11,5.53-12.2,10.64s.63,9.8,6.86,14.26,13.2,7.35,12,11.35c-.5,1.68-2.59,2.89-6.79,2.89h-19l-3,12.44H200.8c6.1,0,13.65.11,17.26-5.65s2.58-10.37-.67-15.14-9.62-7.83-14.36-12.45c-2.8-2.72-2.64-7.69,1.89-7.69h15.57l2.57-10.65Zm5.87,0H239l3.22-13.32h18.36l-3.21,13.32h9.39l-2.57,10.65h-9.4L249,160c-1.06,4.38.3,6.2,5.92,6.2l-2.56,10.62H238.83c-12.28,0-10.25-8.41-9.28-12.43l6.88-28.5H226.35l2.57-10.64Zm41.15,10.64,2.57-10.64H311.8c9.55,0,8.37,7.11,7.51,10.64L312,166.15c-1.92,7.95.53,8.55,2.09,10.62H296.6a9.17,9.17,0,0,1-5.42-2.4c-4.12,1.25-4.4,3.91-13,3.76S260,170.31,260.83,160a18.1,18.1,0,0,1,17.89-16.5h19.93l1.13-4.69c.72-3-1.63-3-3.06-3Zm27,16.34H285c-4.92,0-11.71,5.92-6,11.8s16-3,18.06-11.8Zm68.25-40.3H348c-4.43,0-10.08,0-12.35,9.41l-.95,3.91H327l-2.57,10.65h7.7l-8.94,37a5.81,5.81,0,0,1-2.92,4h14c4.72,0,7.27-4.38,8.77-10.62l7.33-30.31h9.07l2.58-10.65H353l.55-2.24a3.85,3.85,0,0,1,4.25-2.8l5.48.07,2-8.34Zm.6,23.72c1.16-4.81,2.52-10.41,10.56-10.41h32.4c11.88,0,10.3,6.53,9.36,10.41l-4.27,17.69H379.6l-1.3,5.35c-.85,3.53,1.52,5.69,5.93,5.69h27l-3,12.44H368.09c-12.16,0-11.1-4.39-9.61-10.53l7.4-30.64ZM382,143.52H398l1.09-4.29c.34-1.33.82-3.4-2.27-3.4h-9.76a3.83,3.83,0,0,0-4,3.24l-1.13,4.46Zm44.17-18.34H436.2l3.22-13.32h18.36l-3.21,13.33H464l-2.57,10.65H452L446.17,160c-1.06,4.38.31,6.2,5.92,6.2l-2.56,10.62H436.05c-12.29,0-10.26-8.41-9.29-12.43l6.89-28.5H423.57l2.57-10.64Zm41.14,10.65,2.57-10.65H509c9.55,0,8.37,7.11,7.51,10.65l-7.32,30.31c-1.93,8,.53,8.55,2.09,10.62H493.8a9.17,9.17,0,0,1-5.42-2.4c-4.12,1.25-4.4,3.91-13,3.76S457.22,170.3,458,160a18.09,18.09,0,0,1,17.89-16.49h19.92l1.14-4.7c.72-3-1.64-3-3.06-3Zm27,16.33h-12c-4.92,0-11.71,5.92-6,11.8s16-3,18.07-11.8Z" transform="translate(-112.93 -111.86)"/></g></svg>