<svg id="Layer_1" data-name="Layer 1" xmlns="http://www.w3.org/2000/svg" viewBox="0 0 394.46 141.73"><defs><style>.cls-1,.cls-2{fill:#003087;}.cls-1{fill-rule:evenodd;}</style></defs><path class="cls-1" d="M75.23,58l.37,0,.38,0a4.35,4.35,0,0,0,3.4-1.29,5.3,5.3,0,0,0,1.17-3.7,5.25,5.25,0,0,0-1.11-3.69A4.52,4.52,0,0,0,76,48.18a3.07,3.07,0,0,0-.38,0l-.37,0ZM68.45,77.9V42.76h7.28c3.87,0,6.75.84,8.62,2.52s2.82,4.23,2.82,7.68c0,3.3-.9,5.86-2.72,7.67s-4.35,2.74-7.63,2.74h-.95l-.61,0,0,14.58Z"/><path class="cls-1" d="M122.2,64.45l3.3,3.63a16.75,16.75,0,0,0,.7-3.31,34.53,34.53,0,0,0,.23-4.37c0-3.78-.45-6.64-1.35-8.55s-2.25-2.88-4-2.88-3.19,1-4.07,3-1.32,5-1.32,9.09A18.8,18.8,0,0,0,117,69a4.3,4.3,0,0,0,4,2.76l.49,0,.6-.07L118.4,67.6Zm11.53,12.7-3.81,3.3-3.3-3.63a8.27,8.27,0,0,1-2.46,1.07,12.63,12.63,0,0,1-3.09.35A10.31,10.31,0,0,1,112,73.4q-3.24-4.83-3.24-13.6,0-8.13,3.3-12.82a11.05,11.05,0,0,1,18.16.14q3.24,4.83,3.24,13.66a28.88,28.88,0,0,1-.82,7.41,12.36,12.36,0,0,1-2.51,5Z"/><path class="cls-1" d="M158.52,42.76V64.83a46.82,46.82,0,0,1-.24,5.74,9.07,9.07,0,0,1-.79,2.8,8.15,8.15,0,0,1-3.7,3.75,16.52,16.52,0,0,1-12.46,0,7.92,7.92,0,0,1-3.7-3.75,8.87,8.87,0,0,1-.82-2.83,46.69,46.69,0,0,1-.24-5.71V42.76h7V65.39q0,4.31.88,5.54a4.53,4.53,0,0,0,6.25,0q.85-1.26.85-5.52V42.76Z"/><polygon class="cls-1" points="163.06 77.9 163.06 42.76 177.84 42.76 177.84 49.26 169.85 49.26 169.85 56.36 177.09 56.36 177.09 62.81 169.85 62.81 169.85 71.04 177.84 71.04 177.84 77.9 163.06 77.9"/><polygon class="cls-1" points="186.99 77.9 186.99 49.26 181.62 49.26 181.62 42.76 199.4 42.76 199.4 49.26 194.03 49.26 194.03 77.9 186.99 77.9"/><polygon class="cls-1" points="202.43 77.9 202.43 42.76 217.21 42.76 217.21 49.26 209.22 49.26 209.22 56.36 216.46 56.36 216.46 62.81 209.22 62.81 209.22 71.04 217.21 71.04 217.21 77.9 202.43 77.9"/><path class="cls-1" d="M235.45,77.9l-2.77-7.15a24.58,24.58,0,0,1-.75-2.41c-.24-.88-.44-1.8-.62-2.76-.17,1-.37,1.9-.58,2.77s-.42,1.68-.64,2.4l-2.41,7.15h-8l8.14-17.79-7.41-17.35h7.36l2.65,7.39c.14.4.31.94.48,1.62s.38,1.54.61,2.61c.18-.91.38-1.73.57-2.45a17,17,0,0,1,.58-1.81l2.6-7.36h7.25l-7.4,17.35,7.95,17.79Z"/><path class="cls-1" d="M252,58l.37,0,.38,0a4.37,4.37,0,0,0,3.4-1.29,5.3,5.3,0,0,0,1.17-3.7,5.25,5.25,0,0,0-1.11-3.69,4.52,4.52,0,0,0-3.46-1.19,3.07,3.07,0,0,0-.38,0l-.37,0Zm-6.79,19.9V42.76h7.29c3.87,0,6.75.84,8.62,2.52s2.82,4.23,2.82,7.68q0,4.95-2.72,7.67c-1.82,1.82-4.35,2.73-7.63,2.73h-.95l-.61,0,0,14.58Z"/><path class="cls-1" d="M273.29,58l.4,0,.4,0a4.41,4.41,0,0,0,3.43-1.27A5.42,5.42,0,0,0,278.68,53a5.34,5.34,0,0,0-1.06-3.68,4.38,4.38,0,0,0-3.39-1.15h-.55l-.36,0Zm-6.78,19.9V42.76h7.29q6,0,8.72,2.36t2.71,7.53a11.5,11.5,0,0,1-1.38,6,7.39,7.39,0,0,1-4.18,3.19l6.74,16H279l-5.73-14.54V77.9Z"/><polygon class="cls-1" points="289.47 77.9 289.47 42.76 304.25 42.76 304.25 49.26 296.25 49.26 296.25 56.36 303.5 56.36 303.5 62.81 296.25 62.81 296.25 71.04 304.25 71.04 304.25 77.9 289.47 77.9"/><path class="cls-1" d="M308.45,76.68v-7.3a10.76,10.76,0,0,0,2.6,1.73,6.16,6.16,0,0,0,2.58.58,4,4,0,0,0,2.8-.94,3.3,3.3,0,0,0,1-2.55c0-1.33-.92-2.78-2.77-4.33-.52-.44-.9-.77-1.16-1a20.46,20.46,0,0,1-4.43-5.2,11.13,11.13,0,0,1-1.19-5.2,10.49,10.49,0,0,1,2.56-7.36,8.68,8.68,0,0,1,6.7-2.8,10.28,10.28,0,0,1,2.9.42,14.78,14.78,0,0,1,3,1.31v6.21A25.7,25.7,0,0,0,320.21,49a6,6,0,0,0-1.81-.33,3.39,3.39,0,0,0-2.48,1,3.31,3.31,0,0,0-1,2.49,4.64,4.64,0,0,0,.73,2.51,18.25,18.25,0,0,0,3.37,3.45,18.93,18.93,0,0,1,4.55,5.05,10.76,10.76,0,0,1,1,4.85,10.43,10.43,0,0,1-2.71,7.58,9.84,9.84,0,0,1-7.38,2.78,12.67,12.67,0,0,1-3.29-.41,10.26,10.26,0,0,1-2.78-1.25"/><path class="cls-1" d="M326.93,76.68v-7.3a10.58,10.58,0,0,0,2.6,1.73,6.16,6.16,0,0,0,2.58.58,4,4,0,0,0,2.8-.94,3.3,3.3,0,0,0,1-2.55c0-1.33-.92-2.78-2.77-4.33-.52-.44-.9-.77-1.16-1a20.46,20.46,0,0,1-4.43-5.2,11.14,11.14,0,0,1-1.2-5.2A10.49,10.49,0,0,1,329,45.1a8.66,8.66,0,0,1,6.7-2.8,10.16,10.16,0,0,1,2.89.42,14.85,14.85,0,0,1,3,1.31v6.21A25.7,25.7,0,0,0,338.69,49a6,6,0,0,0-1.81-.33,3.38,3.38,0,0,0-2.48,1,3.31,3.31,0,0,0-1,2.49,4.71,4.71,0,0,0,.72,2.51,18.93,18.93,0,0,0,3.37,3.45,19.19,19.19,0,0,1,4.56,5.05,10.76,10.76,0,0,1,1,4.85,10.4,10.4,0,0,1-2.72,7.58A9.82,9.82,0,0,1,333,78.34a12.67,12.67,0,0,1-3.29-.41,10.26,10.26,0,0,1-2.78-1.25"/><polygon class="cls-1" points="350.16 77.93 350.16 72.3 351.86 72.3 352.88 76.14 353.89 72.3 355.59 72.3 355.59 77.93 354.54 77.93 354.54 73.5 353.42 77.93 352.33 77.93 351.21 73.5 351.21 77.93 350.16 77.93"/><rect class="cls-2" x="356.71" y="76.85" width="1.08" height="1.08"/><path class="cls-1" d="M358.91,77.93V72.3h2.39a4.12,4.12,0,0,1,1.31.15,1.27,1.27,0,0,1,.65.54,1.59,1.59,0,0,1,.25.89,1.52,1.52,0,0,1-.37,1,1.76,1.76,0,0,1-1.12.52,2.54,2.54,0,0,1,.61.48,6,6,0,0,1,.65.91l.69,1.1h-1.36l-.82-1.23c-.3-.43-.5-.71-.6-.82a.82.82,0,0,0-.34-.24,2,2,0,0,0-.58-.06H360v2.35ZM360,74.68h.84a4,4,0,0,0,1-.07.52.52,0,0,0,.32-.24.7.7,0,0,0,.12-.42.69.69,0,0,0-.15-.46.74.74,0,0,0-.43-.22c-.09,0-.37,0-.83,0H360Z"/><rect class="cls-2" x="364.57" y="76.85" width="1.08" height="1.08"/><path class="cls-2" d="M47.4,86.91V35.75H29.82V92.61A13.4,13.4,0,0,0,43.22,106H365.65V99H59.46A12.06,12.06,0,0,1,47.4,86.91"/><path class="cls-2" d="M54.43,81.59A10.37,10.37,0,0,0,64.79,92H365.65v-7H64.13a2.68,2.68,0,0,1-2.68-2.68V35.72h-7Z"/><path class="cls-2" d="M100.21,42.74l8.45,35.16h-7.42L99.93,72h-7L91.63,77.9h-6.9l8.16-35.16ZM97.14,57.1l-.8-5.32h-.09L95.5,57.1,94,66.47h4.9Z"/></svg>