<svg id="Capa_1" data-name="Capa 1" xmlns="http://www.w3.org/2000/svg" viewBox="0 0 583.64 182.14"><defs><style>.cls-1{fill:none;}.cls-2{fill:#e1251b;}.cls-3{fill:#002f87;}</style></defs><rect class="cls-1" width="583.64" height="182.14"/><path class="cls-2" d="M165.62,160.32l.17-.77.12-.82L166,158v-1.3l-.12-.59-.18-.47-.17-.47-.3-.42-.29-.35-.42-.3-.47-.29-.65-.3-.65-.23L162,153l-.94-.23-.89-.18-1.06-.18,1.89-.47,1-.3.88-.29.83-.3.82-.35.77-.36L166,150l.89-.47.88-.53.83-.65.88-.6.77-.7.83-.77.77-.77.76-.88.71-.83.71-1,.77-.95.59-1,.7-1.12.65-1.12.6-1.18.58-1.24,1.84-3.84.59-1.3.47-1.18.47-1.24.41-1.06.36-1.07.24-1,.17-.94.18-1,.12-.88v-1.6l-.12-.65-.18-.65-.17-.59-.3-.65-.3-.47-.41-.41-.41-.42-.48-.35-.53-.3-.59-.35-.71-.29-.7-.24-.83-.24-.88-.23-.89-.12-1-.18-1.06-.06-1.12-.12-1.18-.11h-35L107.53,175h16.53l7.2-15.23h13l.88.06.71.18.65.12.53.23.47.24.36.35.29.36.18.41.06.47.06.53-.12.65-.12.71-.23.77-.3.88-.41.89-4,8.38h16l4-8.38.53-1.18.53-1.06.41-1.13.35-1,.3-.94Zm-7.56-18.42-.65.77-.77.71-.71.53-.76.47-.65.3-.77.29-.83.24-.94.18-1.06.11-.36.06h-.71l-1.24.06-1.24.06h-9.5l8-17h11.39l1.89.06.77.06.65,0,.59.12.53.06.41.18.3.18.18.11.17.18.18.18.12.17.06.24.12.24v.23l.06.3-.06.59-.12.71-.3.71-.35.82-1.83,3.9L160,139l-.65,1.12-.59,1Z" transform="translate(-23.43 -53.93)"/><polygon class="cls-2" points="164.5 107.75 169.81 96.47 195.5 96.47 200.75 85.26 175.13 85.26 180.32 74.04 207.72 74.04 213.97 60.76 170.05 60.76 141.72 121.03 186.11 121.03 192.37 107.75 164.5 107.75"/><path class="cls-2" d="M275.07,160.56l.88-1.3.83-1.48.94-1.41.83-1.54.94-1.65.89-1.66.88-1.82.83-1.84,3-6.25.83-1.83.71-1.72.77-1.65.59-1.59.53-1.48.53-1.47.41-1.36.36-1.3.35-1.24.18-1.12.17-1.18.12-1,.06-1-.06-.83-.12-.82-.17-.71-.24-.83-.35-.77-.48-.7-.53-.71-.71-.53-.7-.54-.89-.53-.88-.41-1.07-.41-1.12-.3-1.24-.35-1.3-.18-1.41-.18-1.48-.17-1.65-.06H242.89L214.56,175H247l1.83-.06,1.66-.17,1.65-.18,1.6-.18,1.24-.23.29-.06,1.48-.3,1.42-.41,1.41-.41,1.36-.48,1.3-.53,1.18-.53,1.24-.65,1.12-.71,1.12-.71,1.06-.77.83-.76.94-.83.89-.88.83-1,.94-1,.89-1.18.88-1.18Zm-2.9-28.4-.05.47-.06.53-.12.54-.24.65-.71,1.83-1.12,2.53-1.42,3.13-2.89,6L264,151.11l-1.36,2.6-.53,1-.59.89-.47.71-.42.59-.41.53-.41.41-.48.41-.53.42-.47.35-.47.36-.53.29-.53.3-.6.17-.59.18-.59.24h-.11l-.48.12-.65.11-.65.12-.64.06H237.7l15.17-32.29h15.76l.53.12.53,0,.42.12.41.18.36.18.35.23.24.3.23.24.18.35.18.35.06.42.05.41Z" transform="translate(-23.43 -53.93)"/><path class="cls-2" d="M321.35,158.85l1.12-.24,1.06-.3,1-.35.94-.36.95-.35.76-.41.95-.59,1-.65.95-.65,1-.77.88-.83.89-.88.95-.95.88-1.06.89-1.06.88-1.24.77-1.18.83-1.36.82-1.36.83-1.47.77-1.48.76-1.59,2.25-4.72.65-1.6.65-1.42.53-1.41.53-1.3.41-1.3.3-1.18.29-1.12.18-1.12.12-1,.06-.94v-.83l-.12-.82-.18-.77-.24-.71-.23-.59-.41-.59-.42-.42-.47-.41-.59-.41-.59-.36-.77-.29-.77-.36-.82-.23-1-.24-1-.23-1.18-.18-1.18-.12-1.24-.12-1.36-.12-1.42-.11H302L273.59,175h16.59l6.91-14.82h13.22l1.59,0,1.48-.12,1.53-.12,1-.12h.41l1.3-.18,1.3-.17,1.24-.24Zm-2.18-13.29-.65.12-.71.12L317,146l-.94.06h-.18l-.89.06-2.36.06h-9l8.2-17.47h11.87l.89.12.82.06.71.11.59.12.47.18.36.23.23.3.06.12.12.23.06.42v1.24l-.18.65-.23.82-.36.95-.47.94-2.07,4.55-.53,1.06-.59.94-.59.89-.59.71-.65.71-.71.53-.71.47-.7.36Z" transform="translate(-23.43 -53.93)"/><path class="cls-2" d="M369.76,114.69,364.5,121l-44.8,54h16.88l8.26-10.09h22.91L365.8,175h17.36l11.75-60.27Zm.29,39H354.23l10.27-12.4L374.78,129Z" transform="translate(-23.43 -53.93)"/><polygon class="cls-2" points="415.87 108.52 416.7 107.28 417.52 105.86 418.41 104.44 419.18 103.03 420.01 101.43 420.77 99.84 421.54 98.13 405.01 98.13 404.36 99.54 403.71 100.84 403 102.02 402.36 103.03 401.71 103.91 401.06 104.68 400.35 105.33 399.64 105.86 398.93 106.27 398.1 106.63 397.22 106.92 396.15 107.16 395.03 107.39 393.8 107.51 392.44 107.57 390.96 107.63 390.13 107.63 389.37 107.57 388.6 107.45 387.89 107.39 387.24 107.28 386.71 107.16 386.18 106.98 385.65 106.75 385.24 106.51 384.88 106.27 384.58 106.04 384.35 105.68 384.11 105.33 383.94 105.03 383.88 104.62 383.82 104.21 383.82 103.91 383.82 103.62 383.99 102.79 384.29 101.79 384.64 100.61 385.18 99.25 385.82 97.65 386.59 95.94 387.48 93.99 390.37 87.79 391.31 85.85 392.2 84.13 393.03 82.54 393.8 81.18 394.5 80 395.15 79 395.74 78.23 396.33 77.58 396.75 77.17 397.22 76.75 397.69 76.46 398.22 76.11 398.75 75.75 399.34 75.52 399.99 75.28 400.64 75.04 401.29 74.81 401.94 74.69 402.65 74.51 403.42 74.39 404.25 74.28 405.01 74.22 405.84 74.16 406.72 74.16 408.08 74.16 409.26 74.28 410.32 74.33 411.27 74.51 412.04 74.69 412.63 74.93 413.16 75.22 413.33 75.34 413.51 75.58 413.69 75.75 413.81 75.99 413.93 76.28 413.93 76.52 413.98 76.87 413.98 77.29 413.98 77.64 413.93 78.05 413.69 79 413.39 80.06 412.92 81.18 412.39 82.42 428.92 82.42 429.04 82.25 429.75 80.65 430.39 79.12 430.99 77.64 431.52 76.22 431.93 74.87 432.28 73.57 432.52 72.33 432.76 71.2 432.88 70.14 432.93 69.14 432.93 68.19 432.82 67.25 432.64 66.42 432.4 65.72 432.05 65.01 431.69 64.36 431.22 63.88 430.75 63.35 430.1 62.94 429.39 62.47 428.69 62.11 427.8 61.76 426.91 61.46 425.91 61.17 424.85 60.99 423.67 60.76 422.43 60.58 421.07 60.4 419.65 60.28 418.18 60.17 416.64 60.11 414.93 60.11 412.86 60.11 410.86 60.23 408.97 60.34 407.07 60.46 405.25 60.7 403.53 60.93 401.88 61.17 400.23 61.52 398.75 61.88 397.28 62.29 395.92 62.7 394.56 63.18 393.32 63.71 392.14 64.24 391.02 64.89 390.01 65.54 388.95 66.31 387.89 67.13 386.89 68.08 385.82 69.02 384.88 70.14 383.82 71.27 382.81 72.56 381.81 73.92 380.81 75.34 379.8 76.81 378.8 78.47 377.8 80.18 376.85 81.95 375.79 83.84 374.85 85.79 373.84 87.86 370.95 93.99 370 96.06 369.12 98.01 368.35 99.9 367.7 101.67 367.11 103.38 366.58 104.97 366.17 106.51 365.81 107.93 365.58 109.29 365.4 110.58 365.28 111.7 365.28 112.83 365.4 113.77 365.58 114.72 365.81 115.54 365.93 115.9 366.17 116.25 366.34 116.6 366.58 116.9 367.17 117.55 367.76 118.08 368.47 118.61 369.35 119.08 370.36 119.56 371.48 119.97 372.66 120.27 373.9 120.62 375.32 120.86 376.85 121.15 378.44 121.33 380.16 121.44 382.05 121.56 383.94 121.62 386.06 121.62 387.77 121.62 389.43 121.62 391.08 121.5 392.61 121.39 394.21 121.15 395.63 120.97 397.1 120.74 398.46 120.44 399.76 120.21 401.06 119.85 402.24 119.44 403.42 119.02 404.48 118.55 405.54 118.08 406.6 117.55 407.49 116.96 408.49 116.31 409.5 115.54 410.44 114.77 411.38 113.89 412.27 113 413.22 111.94 414.1 110.88 414.99 109.76 415.87 108.52"/><polygon class="cls-2" points="459.86 60.76 443.33 60.76 414.87 121.03 431.52 121.03 459.86 60.76"/><polygon class="cls-3" points="498.97 60.94 480.37 60.94 446.36 89.52 445.51 91.34 444.95 92.58 445.78 95.42 453.51 121.27 469.92 121.27 461.07 93.94 498.97 60.94"/><path class="cls-3" d="M514.87,162.46l.57.06H516l.51.19.49.19.51.19.43.31.44.38.38.31.38.44.31.44.31.43.19.51.25.5.13.56.06.57.06.56-.06.63-.06.5-.13.62-.25.51-.19.5-.31.43-.31.44-.38.44-.38.38-.44.25-.43.31-.51.25-.49.19-.51.13-.56.06h-.63v-.82h.06l.44-.06.5-.06.44-.06.38-.19.37-.19.38-.25.32-.25.37-.38.31-.31.25-.31.19-.44L519,170l.13-.44.18-.5v-1.94l-.18-.44-.13-.44-.19-.44-.19-.37-.25-.38-.31-.37-.37-.25-.32-.32-.38-.25-.37-.19-.38-.18-.44-.13-.5-.06h-.5v-.88Zm-.06,6.27.19.06h.19l.25.19.12.12.13.19.12.25.07.25.19,1.07.06.31.12.25h1.07l-.06-.19-.13-.31-.13-.44-.12-.63-.06-.31-.06-.31-.13-.25-.06-.19-.13-.25-.19-.06-.18-.13h-.19v-.12l.25-.07.19-.12.25-.13.19-.19.12-.18.12-.25.07-.26v-.31l-.07-.44-.06-.31-.18-.31-.25-.19-.32-.19-.44-.19-.56-.12h-.38v.75h.06l.32.12.31.07.19.12.19.19.06.19.13.25v.19l-.07.25-.06.25-.13.19-.18.12-.25.13-.25.06-.32.06Zm0,5h-.56l-.5-.06-.57-.13-.5-.19-.5-.25-.5-.31-.44-.25-.37-.38-.38-.44-.31-.44-.26-.43-.25-.5-.18-.51-.19-.62-.07-.5v-1.19l.07-.57.19-.56.18-.5.25-.51.26-.43.31-.44.38-.44.37-.31.44-.38.5-.31.5-.19.5-.19.57-.19h.5l.56-.06v.88h-.44l-.44.06-.43.13-.38.18-.44.19-.37.25-.32.32-.37.25-.25.37-.32.38-.18.37-.19.44-.13.44-.13.44-.06.44-.06.5.06.5.06.5.13.44.13.44.19.44.18.37.32.38.25.31.37.32.32.31.37.25.44.19.44.19.37.06.44.06.44.06Zm0-8.77h-.31l-.94.06-.82.06v6.33h1v-2.76h.75l.25.07h.06v-.82h-1.06v-2.13l.37-.06h.69Z" transform="translate(-23.43 -53.93)"/></svg>