<?xml version="1.0" encoding="utf-8"?>
<!-- Generator: Adobe Illustrator 19.2.0, SVG Export Plug-In . SVG Version: 6.00 Build 0)  -->
<svg version="1.1" id="Layer_1" xmlns="http://www.w3.org/2000/svg" xmlns:xlink="http://www.w3.org/1999/xlink" x="0px" y="0px"
	 viewBox="0 0 209.3 42.1" style="enable-background:new 0 0 209.3 42.1;" xml:space="preserve">
<style type="text/css">
	.st0{fill:#5333EA;}
	.st1{fill:#E56475;}
	.st2{fill:#00D09D;}
	.st3{fill:#061523;}
</style>
<g>
	<g>
		<path class="st0" d="M23.9,33.6l-1.7-5.3c1.1-0.2,2.1-0.8,2.9-1.7c0.9-0.9,1.3-2.2,1.3-3.9c0-1.4-0.4-2.5-1.2-3.4
			c-0.8-0.9-1.7-1.3-2.7-1.3c-1.9,0-3,1.1-3.4,3.3l-0.7,4.2c-0.5,2.7-1.5,4.8-3.1,6.3c-1.6,1.5-3.5,2.3-5.7,2.3
			c-2.5,0-4.7-0.9-6.6-2.9c-1.9-2-2.9-4.6-2.9-7.9c0-1.9,0.2-3.6,0.8-5.2c0.5-1.5,1.3-2.8,2.2-3.7c0.9-1,1.9-1.7,3-2.2
			c1.1-0.5,2.2-0.9,3.3-1l1.5,5.4c-1.6,0.2-3,0.8-4,2c-1.1,1.1-1.6,2.7-1.6,4.7c0,1.5,0.4,2.7,1.1,3.6C7,27.9,7.9,28.3,9,28.3
			c0.9,0,1.6-0.3,2.3-1s1.1-1.6,1.3-2.7l0.8-4.2c0.5-2.5,1.5-4.4,2.9-5.9c1.5-1.4,3.4-2.2,5.6-2.2c2.7,0,4.9,1,6.8,3
			c1.9,2,2.8,4.5,2.8,7.4c0,1.7-0.2,3.3-0.7,4.7c-0.5,1.4-1.1,2.5-1.9,3.3c-0.8,0.8-1.6,1.5-2.5,2C25.7,33.1,24.8,33.4,23.9,33.6z"
			/>
		<ellipse transform="matrix(4.939673e-03 -1 1 4.939673e-03 -8.1535 53.9472)" class="st1" cx="23" cy="31.1" rx="3.2" ry="3.2"/>
		<ellipse transform="matrix(4.939673e-03 -1 1 4.939673e-03 -5.4873 23.0838)" class="st2" cx="8.9" cy="14.3" rx="3.2" ry="3.2"/>
	</g>
	<g>
		<path class="st3" d="M41.9,27.2l3.9-1.4c0.2,1.2,0.7,2.2,1.5,2.9s2.1,1.2,3.5,1.2c1.2,0,2.1-0.3,2.7-0.8c0.7-0.6,1-1.3,1-2.1
			c0-1.5-0.9-2.4-2.8-2.8L48,23.4c-1.7-0.4-3-1.1-4-2.2s-1.5-2.4-1.5-4c0-1.9,0.8-3.5,2.3-4.9c1.5-1.4,3.4-2,5.5-2
			c1.4,0,2.6,0.2,3.7,0.6c1.1,0.4,1.9,0.9,2.5,1.6c0.6,0.7,1.1,1.3,1.4,1.9c0.3,0.6,0.5,1.2,0.7,1.8l-3.8,1.4
			c-0.1-0.4-0.2-0.7-0.3-1.1c-0.2-0.3-0.4-0.7-0.7-1.2c-0.3-0.4-0.8-0.8-1.4-1c-0.6-0.3-1.3-0.4-2.1-0.4c-1.1,0-1.9,0.3-2.6,0.9
			c-0.7,0.6-1,1.3-1,2c0,1.4,0.8,2.3,2.5,2.6l3.5,0.8c1.9,0.4,3.4,1.2,4.5,2.3c1,1.1,1.6,2.5,1.6,4.2c0,1.7-0.7,3.3-2.1,4.7
			c-1.4,1.4-3.4,2.1-5.9,2.1c-2.7,0-4.8-0.7-6.3-2C42.9,30.2,42.1,28.8,41.9,27.2z"/>
		<path class="st3" d="M81.8,11.1l-9.3,9.2L82,32.9h-5.4l-7.1-9.6l-3,3v6.6h-4.2V0h4.2v20.7l9.5-9.7H81.8z"/>
		<path class="st3" d="M89.2,42.1h-4.7L90,30.5l-9.4-19.5h4.9l6.8,15.1l6.5-15.1h4.6L89.2,42.1z"/>
		<path class="st3" d="M119.7,30v-0.4c-0.6,1.1-1.4,2.1-2.6,2.8c-1.2,0.7-2.6,1.1-4.2,1.1c-3.1,0-5.6-1.1-7.5-3.3
			c-1.9-2.2-2.8-5-2.8-8.3c0-3.2,1-5.9,2.9-8.1s4.4-3.3,7.5-3.3c1.8,0,3.2,0.4,4.4,1.1c1.1,0.7,1.9,1.6,2.3,2.6V0h4.2v28.9
			c0,1.5,0.1,2.8,0.2,4H120C119.8,32.1,119.7,31.1,119.7,30z M106.9,21.9c0,2.3,0.6,4.2,1.7,5.6c1.1,1.5,2.7,2.2,4.7,2.2
			c1.9,0,3.4-0.7,4.6-2.2c1.2-1.5,1.7-3.4,1.7-5.7c0-2.3-0.6-4.1-1.7-5.5c-1.1-1.4-2.7-2.1-4.6-2.1s-3.5,0.7-4.7,2.1
			C107.5,17.8,106.9,19.6,106.9,21.9z"/>
		<path class="st3" d="M141,10.8v4.5c-0.6-0.1-1.3-0.1-1.9-0.1c-4,0-6,2.2-6,6.7v11h-4.3V11.1h4.2v3.8c1.3-2.8,3.5-4.2,6.5-4.2
			C140.1,10.7,140.6,10.7,141,10.8z"/>
		<path class="st3" d="M144.4,13.7c2.1-2.2,4.8-3.3,8-3.3c3.2,0,5.9,1.1,8,3.3c2.1,2.2,3.2,5,3.2,8.3c0,3.4-1,6.1-3.1,8.3
			c-2.1,2.2-4.8,3.3-8.1,3.3c-3.3,0-6-1.1-8.1-3.3c-2.1-2.2-3.1-5-3.1-8.3C141.2,18.6,142.3,15.9,144.4,13.7z M147.6,27.7
			c1.3,1.4,2.9,2.1,4.8,2.1c1.9,0,3.5-0.7,4.8-2.1c1.3-1.4,2-3.3,2-5.8c0-2.4-0.7-4.3-2-5.7c-1.3-1.4-2.9-2.1-4.8-2.1
			c-1.9,0-3.5,0.7-4.8,2.1c-1.3,1.4-2,3.3-2,5.7C145.6,24.4,146.3,26.3,147.6,27.7z"/>
		<path class="st3" d="M171,41.6h-4.2V11.1h4.1v3.4c0.6-1.2,1.6-2.1,2.9-2.8c1.3-0.7,2.8-1.1,4.5-1.1c3.2,0,5.6,1.1,7.4,3.2
			c1.8,2.2,2.7,4.9,2.7,8.2c0,3.3-0.9,6.1-2.8,8.3c-1.8,2.2-4.3,3.3-7.4,3.3c-1.6,0-3-0.3-4.3-1c-1.2-0.7-2.2-1.5-2.8-2.5V41.6z
			 M183.9,22c0-2.2-0.6-4-1.8-5.5c-1.2-1.4-2.7-2.2-4.7-2.2c-1.9,0-3.5,0.7-4.7,2.2c-1.2,1.4-1.8,3.3-1.8,5.5c0,2.3,0.6,4.1,1.8,5.6
			c1.2,1.4,2.8,2.2,4.7,2.2c1.9,0,3.5-0.7,4.7-2.2C183.4,26.1,183.9,24.2,183.9,22z"/>
		<path class="st3" d="M187.9,32.9l8.1-11.1l-7.9-10.7h5.2l5.4,7.7l5.3-7.7h5l-7.8,10.7c0.5,0.6,1.8,2.4,4,5.6c2.2,3.1,3.6,5,4,5.6
			h-5.1l-5.6-8.1l-5.5,8.1H187.9z"/>
	</g>
</g>
</svg>
